<svg id="Layer_1" data-name="Layer 1" xmlns="http://www.w3.org/2000/svg" viewBox="0 0 11.47 11.43"><defs><style>.cls-1{fill:#fff;}.cls-2{fill:#f8971d;}</style></defs><g id="Ellipse_5" data-name="Ellipse 5"><circle class="cls-1" cx="5.67" cy="5.82" r="5.31"/></g><g id="Ellipse_9" data-name="Ellipse 9"><circle class="cls-2" cx="5.67" cy="5.82" r="5.31"/></g><g id="Path_13" data-name="Path 13"><path class="cls-1" d="M4.56,5.54s-3.4,1.33-3.31-.62,1.65-1,1.65-1-1-1.66.93-1.79S4.56,5.54,4.56,5.54Z"/></g><g id="Path_14" data-name="Path 14"><path class="cls-1" d="M6.69,5.39S5.36,2,7.31,2.08s1,1.65,1,1.65,1.66-1,1.79.93S6.69,5.39,6.69,5.39Z"/></g><g id="Path_15" data-name="Path 15"><path class="cls-1" d="M1.73,7.19c0-1.84,1.78,0,4,0s4-1.81,4,0-1.8,3.32-4,3.3S1.72,9,1.73,7.19Z"/></g></svg>